<svg width="255" height="76" viewBox="0 0 255 76" fill="none" xmlns="http://www.w3.org/2000/svg">
<path d="M251.185 49.12C249.269 49.12 247.815 48.6575 246.824 47.7326C245.833 46.7745 245.337 45.2053 245.337 43.025V15.2256H250.739V42.5295C250.739 43.4545 250.904 44.0821 251.234 44.4125C251.564 44.7428 252.06 44.908 252.721 44.908C253.514 44.908 254.273 44.8089 255 44.6107V48.5254C254.372 48.7567 253.761 48.9053 253.167 48.9714C252.605 49.0705 251.944 49.12 251.185 49.12Z" fill="white"/>
<path d="M226.306 49.1201C222.077 49.1201 218.972 48.063 216.99 45.9487C215.041 43.8344 214.066 40.8117 214.066 36.8805C214.066 32.9492 215.057 29.9265 217.039 27.8122C219.021 25.6979 222.11 24.6408 226.306 24.6408C230.534 24.6408 233.64 25.6979 235.622 27.8122C237.604 29.9265 238.595 32.9492 238.595 36.8805C238.595 40.8117 237.604 43.8344 235.622 45.9487C233.673 48.063 230.567 49.1201 226.306 49.1201ZM226.306 44.5612C228.783 44.5612 230.534 43.9666 231.558 42.7773C232.616 41.555 233.144 39.5894 233.144 36.8805C233.144 34.1715 232.616 32.2225 231.558 31.0332C230.534 29.8439 228.783 29.2493 226.306 29.2493C223.861 29.2493 222.11 29.8439 221.053 31.0332C220.029 32.2225 219.517 34.1715 219.517 36.8805C219.517 39.5894 220.029 41.555 221.053 42.7773C222.11 43.9666 223.861 44.5612 226.306 44.5612Z" fill="white"/>
<path d="M184.729 59.3281V25.1363H189.387L189.684 27.4653C190.742 26.5073 191.898 25.7971 193.153 25.3346C194.408 24.8721 195.895 24.6408 197.613 24.6408C200.983 24.6408 203.609 25.5658 205.492 27.4158C207.375 29.2327 208.316 32.2555 208.316 36.484C208.316 40.7126 207.342 43.884 205.393 45.9983C203.444 48.0795 200.784 49.1201 197.415 49.1201C194.574 49.1201 192.146 48.4594 190.13 47.138V59.3281H184.729ZM196.027 45.0567C200.586 45.0567 202.866 42.1827 202.866 36.4345C202.866 33.6595 202.353 31.6939 201.329 30.5376C200.305 29.3484 198.587 28.7537 196.176 28.7537C193.764 28.7537 191.749 29.5796 190.13 31.2314V42.9755C190.89 43.6032 191.733 44.1152 192.658 44.5117C193.616 44.875 194.739 45.0567 196.027 45.0567Z" fill="white"/>
<path d="M168.086 49.1201C166.467 49.1201 164.915 49.0045 163.428 48.7732C161.974 48.542 160.769 48.2612 159.811 47.9308V43.3719C160.934 43.8014 162.173 44.1317 163.527 44.363C164.882 44.5942 166.17 44.7099 167.392 44.7099C169.242 44.7099 170.564 44.5447 171.356 44.2143C172.149 43.884 172.546 43.2398 172.546 42.2818C172.546 41.588 172.298 41.0429 171.802 40.6465C171.34 40.2501 170.63 39.8867 169.672 39.5563C168.747 39.226 167.557 38.8296 166.104 38.3671C164.716 37.9046 163.511 37.409 162.486 36.8805C161.462 36.3189 160.67 35.6086 160.108 34.7497C159.546 33.8907 159.266 32.7675 159.266 31.38C159.266 29.2327 160.042 27.581 161.595 26.4247C163.147 25.2354 165.641 24.6408 169.077 24.6408C170.432 24.6408 171.72 24.7399 172.942 24.9381C174.165 25.1363 175.205 25.3841 176.064 25.6814V30.1908C175.139 29.8274 174.115 29.5466 172.992 29.3484C171.902 29.1502 170.877 29.051 169.919 29.051C168.202 29.051 166.897 29.1997 166.005 29.497C165.146 29.7943 164.716 30.389 164.716 31.2809C164.716 32.2059 165.162 32.8666 166.054 33.2631C166.979 33.6265 168.449 34.1385 170.465 34.7992C172.315 35.3608 173.785 35.9555 174.875 36.5831C175.965 37.2108 176.741 37.9706 177.204 38.8626C177.699 39.7215 177.947 40.8447 177.947 42.2322C177.947 44.5447 177.105 46.2791 175.42 47.4353C173.735 48.5585 171.29 49.1201 168.086 49.1201Z" fill="white"/>
<path d="M144.289 49.1201C140.193 49.1201 137.021 48.1125 134.775 46.0974C132.529 44.0822 131.405 40.9934 131.405 36.8309C131.405 33.0649 132.363 30.0917 134.279 27.9113C136.196 25.731 139.103 24.6408 143.001 24.6408C146.569 24.6408 149.245 25.5823 151.028 27.4653C152.845 29.3153 153.754 31.7104 153.754 34.6506V39.0112H136.559C136.823 41.2907 137.649 42.8599 139.037 43.7188C140.424 44.5777 142.538 45.0072 145.379 45.0072C146.569 45.0072 147.791 44.8916 149.046 44.6603C150.302 44.4291 151.392 44.1317 152.317 43.7684V47.7326C151.26 48.1951 150.037 48.542 148.65 48.7732C147.295 49.0045 145.842 49.1201 144.289 49.1201ZM136.559 35.493H148.997V33.8577C148.997 32.239 148.551 30.9836 147.659 30.0917C146.767 29.1667 145.264 28.7042 143.15 28.7042C140.639 28.7042 138.904 29.2493 137.946 30.3394C137.021 31.4296 136.559 33.1474 136.559 35.493Z" fill="white"/>
<path d="M114.07 48.6246V25.1363H119.025L119.322 27.8618C120.445 27.135 121.783 26.4743 123.336 25.8796C124.889 25.285 126.425 24.8721 127.944 24.6408V28.7537C127.019 28.9189 126.012 29.1667 124.922 29.497C123.865 29.7943 122.857 30.1412 121.899 30.5376C120.941 30.901 120.132 31.2809 119.471 31.6774V48.6246H114.07Z" fill="white"/>
<path d="M83.7412 59.3281V25.1363H88.3992L88.6965 27.4653C89.7537 26.5073 90.9099 25.7971 92.1653 25.3346C93.4206 24.8721 94.9072 24.6408 96.6251 24.6408C99.9947 24.6408 102.621 25.5658 104.504 27.4158C106.387 29.2327 107.329 32.2555 107.329 36.484C107.329 40.7126 106.354 43.884 104.405 45.9983C102.456 48.0795 99.7965 49.1201 96.4268 49.1201C93.5858 49.1201 91.1577 48.4594 89.1425 47.138V59.3281H83.7412ZM95.0393 45.0567C99.5982 45.0567 101.878 42.1827 101.878 36.4345C101.878 33.6595 101.366 31.6939 100.342 30.5376C99.3174 29.3484 97.5996 28.7537 95.188 28.7537C92.7764 28.7537 90.7613 29.5796 89.1425 31.2314V42.9755C89.9023 43.6032 90.7447 44.1152 91.6697 44.5117C92.6278 44.875 93.751 45.0567 95.0393 45.0567Z" fill="white"/>
<path fill-rule="evenodd" clip-rule="evenodd" d="M37.5884 75.1769C58.348 75.1769 75.1769 58.348 75.1769 37.5884C75.1769 16.8289 58.348 0 37.5884 0C16.8289 0 0 16.8289 0 37.5884C0 58.348 16.8289 75.1769 37.5884 75.1769ZM49.1474 59.0986V61.3261L25.4936 61.326V59.0986H26.8937V57.5075H28.8031V49.8705H28.3576V48.725C28.5174 48.6858 28.5666 48.624 28.6121 48.4704H31.1579V47.3885C32.2185 47.0931 32.6412 46.6763 33.2581 45.7338H33.8309C35.1489 44.3831 35.5993 43.2333 35.6766 40.197C34.6398 39.4218 34.3142 38.98 34.9129 38.1604C32.5768 37.3223 31.5287 36.6583 30.5851 34.7874L29.1849 35.5511C12.8285 22.1863 20.7203 11.4308 26.3846 17.4768V16.904L26.0664 16.5222V15.1221C30.0336 13.7273 32.245 13.6228 37.1188 13.5947C41.9925 13.6228 44.6074 13.7274 48.5747 15.1221V16.5222L48.2564 16.9041V17.4769C53.9207 11.4309 61.8126 22.1864 45.4561 35.5512L44.0559 34.7875C43.1123 36.6584 42.0642 37.3224 39.7282 38.1605C40.3268 38.9801 40.0012 39.4218 38.9644 40.197C39.0418 43.2334 39.4921 44.3832 40.8101 45.7339H41.3829C41.9998 46.6764 42.4225 47.0932 43.4831 47.3885V48.4705H46.0289C46.0745 48.6241 46.1236 48.6859 46.2835 48.725V49.8706H45.838V57.5076H47.7473V59.0986H49.1474ZM45.1379 33.1328C47.5563 27.4063 47.9124 25.0581 48.2564 19.1316C53.3479 13.4038 57.1666 21.3591 45.1379 33.1328ZM29.5452 33.1328C27.1267 27.4063 26.7706 25.0581 26.4266 19.1316C21.3351 13.4038 17.5165 21.3591 29.5452 33.1328Z" fill="#FF7F3E"/>
</svg>
