<svg width="4157" height="1211" viewBox="0 0 4157 1211" fill="none" xmlns="http://www.w3.org/2000/svg">
<path fill-rule="evenodd" clip-rule="evenodd" d="M485 1211C752.858 1211 970 993.858 970 726C970 458.142 752.858 241 485 241C217.142 241 0 458.142 0 726C0 993.858 217.142 1211 485 1211ZM634.143 1003.54V1032.28L328.94 1032.28V1003.54H347.006V983.014H371.642V884.474H365.894V869.693C367.956 869.188 368.59 868.39 369.178 866.408H402.026V852.449C415.711 848.637 421.165 843.259 429.125 831.098H436.516C453.522 813.671 459.333 798.835 460.33 759.657C446.953 749.655 442.752 743.955 450.476 733.38C420.334 722.565 406.81 713.998 394.635 689.858L376.569 699.712C165.523 527.267 267.351 388.491 340.437 466.501V459.111L336.331 454.184V436.118C387.519 418.122 416.053 416.773 478.939 416.411C541.824 416.773 575.564 418.123 626.753 436.119V454.185L622.647 459.111V466.502C695.733 388.491 797.56 527.268 586.514 699.713L568.448 689.859C556.273 713.999 542.749 722.566 512.607 733.38C520.332 743.956 516.131 749.655 502.753 759.658C503.751 798.835 509.561 813.671 526.568 831.099H533.958C541.918 843.26 547.373 848.638 561.058 852.449V866.409H593.905C594.493 868.391 595.127 869.188 597.19 869.694V884.475H591.442V983.015H616.077V1003.54H634.143ZM582.409 668.509C613.613 594.621 618.208 564.321 622.647 487.853C688.342 413.948 737.613 516.593 582.409 668.509ZM381.217 668.509C350.012 594.621 345.417 564.321 340.979 487.853C275.284 413.948 226.012 516.593 381.217 668.509Z" fill="#FF7F3E"/>
<path d="M1147.39 1031.34V490.384H1221.09L1225.79 527.232C1242.52 512.075 1260.81 500.837 1280.67 493.52C1300.53 486.203 1324.05 482.544 1351.23 482.544C1404.54 482.544 1446.1 497.179 1475.89 526.448C1505.68 555.195 1520.58 603.019 1520.58 669.92C1520.58 736.821 1505.16 786.997 1474.32 820.448C1443.48 853.376 1401.41 869.84 1348.1 869.84C1303.15 869.84 1264.73 859.387 1232.85 838.48V1031.34H1147.39ZM1326.14 805.552C1398.27 805.552 1434.34 760.08 1434.34 669.136C1434.34 625.232 1426.23 594.133 1410.03 575.84C1393.83 557.024 1366.65 547.616 1328.5 547.616C1290.34 547.616 1258.46 560.683 1232.85 586.816V772.624C1244.87 782.555 1258.2 790.656 1272.83 796.928C1287.99 802.677 1305.76 805.552 1326.14 805.552ZM1674.26 862V490.384H1752.66L1757.37 533.504C1775.14 522.005 1796.31 511.552 1820.87 502.144C1845.44 492.736 1869.74 486.203 1893.78 482.544V547.616C1879.15 550.229 1863.21 554.149 1845.96 559.376C1829.24 564.08 1813.29 569.568 1798.14 575.84C1782.98 581.589 1770.17 587.6 1759.72 593.872V862H1674.26ZM2199.42 869.84C2134.61 869.84 2084.44 853.899 2048.89 822.016C2013.35 790.133 1995.58 741.264 1995.58 675.408C1995.58 615.824 2010.74 568.784 2041.05 534.288C2071.37 499.792 2117.36 482.544 2179.04 482.544C2235.49 482.544 2277.82 497.44 2306.05 527.232C2334.79 556.501 2349.17 594.395 2349.17 640.912V709.904H2077.12C2081.3 745.968 2094.37 770.795 2116.32 784.384C2138.27 797.973 2171.72 804.768 2216.67 804.768C2235.49 804.768 2254.82 802.939 2274.69 799.28C2294.55 795.621 2311.8 790.917 2326.43 785.168V847.888C2309.7 855.205 2290.37 860.693 2268.41 864.352C2246.98 868.011 2223.99 869.84 2199.42 869.84ZM2077.12 654.24H2273.9V628.368C2273.9 602.757 2266.85 582.896 2252.73 568.784C2238.62 554.149 2214.84 546.832 2181.39 546.832C2141.67 546.832 2114.23 555.456 2099.07 572.704C2084.44 589.952 2077.12 617.131 2077.12 654.24ZM2622.96 869.84C2597.35 869.84 2572.78 868.011 2549.26 864.352C2526.27 860.693 2507.19 856.251 2492.03 851.024V778.896C2509.8 785.691 2529.4 790.917 2550.83 794.576C2572.26 798.235 2592.64 800.064 2611.98 800.064C2641.25 800.064 2662.16 797.451 2674.7 792.224C2687.25 786.997 2693.52 776.805 2693.52 761.648C2693.52 750.672 2689.6 742.048 2681.76 735.776C2674.44 729.504 2663.2 723.755 2648.05 718.528C2633.41 713.301 2614.6 707.029 2591.6 699.712C2569.65 692.395 2550.57 684.555 2534.37 676.192C2518.16 667.307 2505.62 656.069 2496.74 642.48C2487.85 628.891 2483.41 611.12 2483.41 589.168C2483.41 555.195 2495.69 529.061 2520.26 510.768C2544.82 491.952 2584.28 482.544 2638.64 482.544C2660.07 482.544 2680.45 484.112 2699.79 487.248C2719.13 490.384 2735.59 494.304 2749.18 499.008V570.352C2734.55 564.603 2718.35 560.16 2700.58 557.024C2683.33 553.888 2667.12 552.32 2651.97 552.32C2624.79 552.32 2604.14 554.672 2590.03 559.376C2576.44 564.08 2569.65 573.488 2569.65 587.6C2569.65 602.235 2576.7 612.688 2590.82 618.96C2605.45 624.709 2628.71 632.811 2660.59 643.264C2689.86 652.149 2713.12 661.557 2730.37 671.488C2747.62 681.419 2759.9 693.44 2767.22 707.552C2775.06 721.141 2778.98 738.912 2778.98 760.864C2778.98 797.451 2765.65 824.891 2738.99 843.184C2712.34 860.955 2673.66 869.84 2622.96 869.84ZM2933.32 1031.34V490.384H3007.02L3011.72 527.232C3028.44 512.075 3046.74 500.837 3066.6 493.52C3086.46 486.203 3109.98 482.544 3137.16 482.544C3190.47 482.544 3232.02 497.179 3261.82 526.448C3291.61 555.195 3306.5 603.019 3306.5 669.92C3306.5 736.821 3291.08 786.997 3260.25 820.448C3229.41 853.376 3187.34 869.84 3134.02 869.84C3089.07 869.84 3050.66 859.387 3018.78 838.48V1031.34H2933.32ZM3112.07 805.552C3184.2 805.552 3220.26 760.08 3220.26 669.136C3220.26 625.232 3212.16 594.133 3195.96 575.84C3179.76 557.024 3152.58 547.616 3114.42 547.616C3076.27 547.616 3044.39 560.683 3018.78 586.816V772.624C3030.8 782.555 3044.12 790.656 3058.76 796.928C3073.92 802.677 3091.69 805.552 3112.07 805.552ZM3638.16 869.84C3571.26 869.84 3522.13 853.115 3490.77 819.664C3459.93 786.213 3444.51 738.389 3444.51 676.192C3444.51 613.995 3460.19 566.171 3491.55 532.72C3522.91 499.269 3571.78 482.544 3638.16 482.544C3705.06 482.544 3754.19 499.269 3785.55 532.72C3816.91 566.171 3832.59 613.995 3832.59 676.192C3832.59 738.389 3816.91 786.213 3785.55 819.664C3754.71 853.115 3705.58 869.84 3638.16 869.84ZM3638.16 797.712C3677.36 797.712 3705.06 788.304 3721.26 769.488C3737.99 750.149 3746.35 719.051 3746.35 676.192C3746.35 633.333 3737.99 602.496 3721.26 583.68C3705.06 564.864 3677.36 555.456 3638.16 555.456C3599.48 555.456 3571.78 564.864 3555.06 583.68C3538.85 602.496 3530.75 633.333 3530.75 676.192C3530.75 719.051 3538.85 750.149 3555.06 769.488C3571.78 788.304 3599.48 797.712 3638.16 797.712ZM4078.81 869.84C4048.5 869.84 4025.5 862.523 4009.82 847.888C3994.14 832.731 3986.3 807.904 3986.3 773.408V333.584H4071.75V765.568C4071.75 780.203 4074.37 790.133 4079.59 795.36C4084.82 800.587 4092.66 803.2 4103.11 803.2C4115.66 803.2 4127.68 801.632 4139.18 798.496V860.432C4129.25 864.091 4119.58 866.443 4110.17 867.488C4101.29 869.056 4090.83 869.84 4078.81 869.84Z" fill="black"/>
</svg>
