<svg width="71" height="78" viewBox="0 0 71 78" fill="none" xmlns="http://www.w3.org/2000/svg">
<path d="M2 28.25V49.8875C2 57.8375 2 57.8375 9.5 62.9L30.125 74.825C33.2375 76.625 38.3 76.625 41.375 74.825L62 62.9C69.5 57.8375 69.5 57.8375 69.5 49.925V28.25C69.5 20.3375 69.5 20.3375 62 15.275L41.375 3.35C38.3 1.55 33.2375 1.55 30.125 3.35L9.5 15.275C2 20.3375 2 20.3375 2 28.25Z" stroke="#292D32" stroke-width="3" stroke-linecap="round" stroke-linejoin="round"/>
<path d="M35.75 50.3375C41.9632 50.3375 47 45.3007 47 39.0875C47 32.8743 41.9632 27.8375 35.75 27.8375C29.5368 27.8375 24.5 32.8743 24.5 39.0875C24.5 45.3007 29.5368 50.3375 35.75 50.3375Z" stroke="#292D32" stroke-width="3" stroke-linecap="round" stroke-linejoin="round"/>
</svg>
